<?xml version="1.0" standalone="no"?>
<!DOCTYPE svg PUBLIC "-//W3C//DTD SVG 20010904//EN"
 "http://www.w3.org/TR/2001/REC-SVG-20010904/DTD/svg10.dtd">
<svg version="1.0" xmlns="http://www.w3.org/2000/svg"
 width="122.000000pt" height="122.000000pt" viewBox="0 0 122.000000 122.000000"
 preserveAspectRatio="xMidYMid meet">

<g transform="translate(0.000000,122.000000) scale(0.100000,-0.100000)"
fill="#000000" stroke="none">
<path d="M574 1181 c-77 -13 -185 -50 -222 -78 -45 -33 -92 -100 -92 -130 0
-41 27 -38 76 7 155 143 434 142 603 0 50 -43 71 -45 71 -9 0 52 -79 138 -172
185 -42 22 -69 28 -133 30 -44 1 -103 -1 -131 -5z"/>
<path d="M180 790 c6 -11 12 -20 14 -20 2 0 6 9 9 20 4 15 0 20 -14 20 -17 0
-18 -3 -9 -20z"/>
<path d="M1070 794 c0 -9 5 -14 12 -12 18 6 21 28 4 28 -9 0 -16 -7 -16 -16z"/>
<path d="M257 723 c-4 -3 -7 -49 -8 -102 -1 -91 -14 -218 -18 -176 l-2 20 -9
-20 c-5 -11 -9 -50 -9 -87 -1 -38 -5 -68 -9 -68 -23 0 -32 60 -32 215 0 128
-3 163 -13 160 -17 -7 -22 -122 -6 -141 10 -12 9 -18 -4 -31 -23 -23 -48 -1
-41 35 3 15 1 38 -4 52 -9 25 -9 25 -17 -8 -4 -18 -13 -36 -21 -39 -11 -4 -14
-32 -13 -137 2 -184 3 -186 70 -213 30 -12 120 -31 200 -43 109 -16 149 -26
165 -41 77 -73 281 -37 260 46 -8 33 -57 57 -131 62 -51 4 -67 1 -109 -21
l-48 -27 -122 16 c-133 17 -218 38 -234 57 -15 19 -27 158 -14 158 6 0 13 -9
17 -19 3 -11 21 -29 40 -40 19 -11 35 -25 35 -30 0 -14 36 -32 75 -37 62 -8
65 2 65 235 0 148 -3 210 -12 219 -13 13 -41 16 -51 5z"/>
<path d="M962 718 c-9 -9 -12 -68 -12 -218 0 -187 2 -208 18 -223 11 -10 30
-15 49 -13 32 4 73 22 73 32 0 3 -4 2 -10 -1 -14 -9 -19 25 -29 175 l-8 135
-2 -95 c-2 -117 -20 -105 -22 15 -3 177 -19 231 -57 193z"/>
<path d="M1166 583 c-4 -18 -5 -47 -1 -63 5 -23 3 -32 -10 -36 -23 -9 -53 22
-37 38 14 14 16 82 3 73 -13 -7 -20 -67 -23 -186 l-3 -96 30 17 c46 25 65 72
64 160 -1 41 -4 86 -8 100 -7 25 -8 24 -15 -7z"/>
</g>
</svg>
